<mxfile host="65bd71144e">
    <diagram id="AO9hPOBbPmiww6_MC9ys" name="Page-1">
        <mxGraphModel dx="664" dy="691" grid="1" gridSize="10" guides="1" tooltips="1" connect="1" arrows="1" fold="1" page="1" pageScale="1" pageWidth="850" pageHeight="1100" math="0" shadow="0">
            <root>
                <mxCell id="0"/>
                <mxCell id="1" parent="0"/>
                <mxCell id="2" value="" style="whiteSpace=wrap;html=1;shape=mxgraph.basic.pentagon;fillColor=#eeeeee;strokeColor=#36393d;" vertex="1" parent="1">
                    <mxGeometry x="200" y="210" width="177.78" height="160" as="geometry"/>
                </mxCell>
                <mxCell id="3" value="道" style="ellipse;whiteSpace=wrap;html=1;aspect=fixed;fillColor=#000000;fontColor=#FFFFFF;fontSize=60;" vertex="1" parent="1">
                    <mxGeometry x="219" y="228" width="140" height="140" as="geometry"/>
                </mxCell>
                <mxCell id="4" value="空虚性" style="rounded=0;whiteSpace=wrap;html=1;fontSize=20;fillColor=#dae8fc;strokeColor=#6c8ebf;rotation=-35;" vertex="1" parent="1">
                    <mxGeometry x="170.9" y="182.87" width="100" height="48" as="geometry"/>
                </mxCell>
                <mxCell id="5" value="不变性" style="rounded=0;whiteSpace=wrap;html=1;fontSize=20;fillColor=#d5e8d4;strokeColor=#82b366;rotation=35;" vertex="1" parent="1">
                    <mxGeometry x="310" y="182.87" width="100" height="48" as="geometry"/>
                </mxCell>
                <mxCell id="6" value="唯一性" style="rounded=0;whiteSpace=wrap;html=1;fontSize=20;fillColor=#ffe6cc;strokeColor=#d79b00;rotation=110;" vertex="1" parent="1">
                    <mxGeometry x="350" y="310" width="100" height="48" as="geometry"/>
                </mxCell>
                <mxCell id="7" value="最高性" style="rounded=0;whiteSpace=wrap;html=1;fontSize=20;fillColor=#f8cecc;strokeColor=#b85450;rotation=0;" vertex="1" parent="1">
                    <mxGeometry x="239" y="390" width="100" height="48" as="geometry"/>
                </mxCell>
                <mxCell id="8" value="永动性" style="rounded=0;whiteSpace=wrap;html=1;fontSize=20;fillColor=#e1d5e7;strokeColor=#9673a6;rotation=-107;" vertex="1" parent="1">
                    <mxGeometry x="130" y="310" width="100" height="48" as="geometry"/>
                </mxCell>
            </root>
        </mxGraphModel>
    </diagram>
</mxfile>